{"accessors":[{"name":"Körper9_1_0_positions","componentType":5126,"count":559,"min":[-19.118785858154297,-54.891632080078125,0],"max":[41.20051574707031,91.87342834472656,30.175439834594727],"type":"VEC3","bufferView":0,"byteOffset":0},{"name":"Körper9_1_0_normals","componentType":5126,"count":559,"min":[-1,-1,-1],"max":[1,1,1],"type":"VEC3","bufferView":1,"byteOffset":0},{"name":"Körper9_1_0_texcoords","componentType":5126,"count":559,"min":[-6.737553119659424,-8.187342643737793],"max":[14.000404357910156,7.9498162269592285],"type":"VEC2","bufferView":2,"byteOffset":0},{"name":"Körper9_1_0_indices","componentType":5123,"count":1278,"min":[0],"max":[558],"type":"SCALAR","bufferView":3,"byteOffset":0}],"asset":{"generator":"obj2gltf","version":"2.0"},"buffers":[{"name":"1.OG","byteLength":20444,"uri":"data:application/octet-stream;base64,"}],"bufferViews":[{"name":"bufferView_0","buffer":0,"byteLength":6708,"byteOffset":0,"byteStride":12,"target":34962},{"name":"bufferView_1","buffer":0,"byteLength":6708,"byteOffset":6708,"byteStride":12,"target":34962},{"name":"bufferView_2","buffer":0,"byteLength":4472,"byteOffset":13416,"byteStride":8,"target":34962},{"name":"bufferView_3","buffer":0,"byteLength":2556,"byteOffset":17888,"target":34963}],"materials":[{"name":"Stahl_-_satiniert","pbrMetallicRoughness":{"baseColorFactor":[0.627451,0.627451,0.627451,1],"metallicFactor":0,"roughnessFactor":1},"emissiveFactor":[0,0,0],"alphaMode":"OPAQUE","doubleSided":false}],"meshes":[{"name":"Körper9_1","primitives":[{"attributes":{"POSITION":0,"NORMAL":1,"TEXCOORD_0":2},"indices":3,"material":0,"mode":4}]}],"nodes":[{"name":"Körper9","mesh":0}],"scene":0,"scenes":[{"nodes":[0]}]}