{"accessors":[{"name":"Körper1_1_0_positions","componentType":5126,"count":1062,"min":[-91.13948822021484,-78.12957000732422,0],"max":[98.18583679199219,103.24625396728516,25],"type":"VEC3","bufferView":0,"byteOffset":0},{"name":"Körper1_1_0_normals","componentType":5126,"count":1062,"min":[-1,-1,-1],"max":[1,1,1],"type":"VEC3","bufferView":1,"byteOffset":0},{"name":"Körper1_1_0_texcoords","componentType":5126,"count":1062,"min":[-9.466266632080078,-8.068791389465332],"max":[9.466266632080078,10.068791389465332],"type":"VEC2","bufferView":2,"byteOffset":0},{"name":"Körper1_1_0_indices","componentType":5123,"count":2238,"min":[0],"max":[1061],"type":"SCALAR","bufferView":3,"byteOffset":0}],"asset":{"generator":"obj2gltf","version":"2.0"},"buffers":[{"name":"EG","byteLength":38460,"uri":"data:application/octet-stream;base64,"}],"bufferViews":[{"name":"bufferView_0","buffer":0,"byteLength":12744,"byteOffset":0,"byteStride":12,"target":34962},{"name":"bufferView_1","buffer":0,"byteLength":12744,"byteOffset":12744,"byteStride":12,"target":34962},{"name":"bufferView_2","buffer":0,"byteLength":8496,"byteOffset":25488,"byteStride":8,"target":34962},{"name":"bufferView_3","buffer":0,"byteLength":4476,"byteOffset":33984,"target":34963}],"materials":[{"name":"Stahl_-_satiniert","pbrMetallicRoughness":{"baseColorFactor":[0.627451,0.627451,0.627451,1],"metallicFactor":0,"roughnessFactor":1},"emissiveFactor":[0,0,0],"alphaMode":"OPAQUE","doubleSided":false}],"meshes":[{"name":"Körper1_1","primitives":[{"attributes":{"POSITION":0,"NORMAL":1,"TEXCOORD_0":2},"indices":3,"material":0,"mode":4}]}],"nodes":[{"name":"Körper1","mesh":0}],"scene":0,"scenes":[{"nodes":[0]}]}